<svg xmlns="http://www.w3.org/2000/svg" fill="currentColor" viewBox="0 0 24 24">
<path d="M12 0c-6.626 0-12 5.373-12 12 0 5.302 3.438 9.8 8.207 11.387.6.111.82-.25.82-.559v-1.993c-3.336.724-4.04-1.61-4.04-1.61-.54-1.378-1.328-1.74-1.328-1.74-1.088-.745.085-.729.085-.729 1.205.084 1.838 1.236 1.838 1.236 1.07 1.835 2.809 1.305 3.492.998.108-.77.418-1.305.762-1.605-2.665-.3-5.466-1.332-5.466-5.93 0-1.31.464-2.381 1.229-3.22-.124-.302-.533-1.52.117-3.176 0 0 1.008-.322 3.301 1.23.957-.266 1.983-.399 3.003-.404 1.02.005 2.046.138 3.006.404 2.291-1.552 3.297-1.23 3.297-1.23.65 1.656.241 2.874.118 3.176.766.839 1.228 1.91 1.228 3.22 0 4.61-2.805 5.624-5.474 5.921.43.37.81 1.096.81 2.21v3.293c0 .311.22.67.825.559 4.766-1.586 8.202-6.084 8.202-11.387 0-6.627-5.373-12-12-12z"/>
</svg>